<svg xmlns="http://www.w3.org/2000/svg" viewBox="0 0 311.94 440.29"><g id="Layer_2" data-name="Layer 2"><g id="Layer_1-2" data-name="Layer 1"><path d="M311.8,149.35c-1.51-35.4-15.72-69.88-39.07-96.47A157.1,157.1,0,0,0,184.94,2.8c-36.21-6.95-74.8-.92-106.81,17.48-29.27,16.9-52.12,44-65.26,75-18.09,42.63-17.53,94,4.37,135.1,9.06,17,21.65,31.63,32.26,47.53q3.82,5.75,7.63,11.49l11.7-15.49,23-30.54,28.53-37.78a52.35,52.35,0,0,1-12-33.44v-.53c0-.27,0-.55,0-.82a52.54,52.54,0,0,1,105.08.75v.6a52.53,52.53,0,0,1-71.25,49.11L107.6,267.13l8.72,13.27L93.25,311l-8.72-13.27-.78,1L72.83,313.19q5.65,8.63,11.33,17.24,7,10.54,13.9,21.06c.66,1,1.33,2,2,3s1.34,2,2,3c4.12,6.2,8.2,12.41,12.33,18.61,1.24,1.87,2.47,3.78,3.71,5.65.53.77,1.06,1.59,1.58,2.37.71,1.09,1.45,2.14,2.2,3.23,5.31,7.94,10.85,15.77,16.17,23.74.53.81,1.1,1.62,1.62,2.43v0c.54.81,1.1,1.62,1.63,2.47s1.09,1.69,1.63,2.53c3.2,5,6.26,10,9.12,15.13,1.06,1.94,2.44,5.57,4.69,6.46,2.82,1,4.23-2.44,5.26-4.56a133.92,133.92,0,0,1,8.31-14.21c.5-.81,1-1.57,1.53-2.35,0,0,0,0,0,0,.49-.77,1-1.55,1.51-2.3,0,0,0,0,0,0,.53-.81,1.06-1.58,1.55-2.39.46-.64.85-1.32,1.27-1.94q10.53-16.46,20.87-33l3.78-6c.88-1.38,1.76-2.75,2.64-4.17.39-.63.78-1.22,1.2-1.87l3.66-5.85c.25-.41.54-.81.79-1.23l1.09-1.73,1.87-2.92,30.1-47.71c10.73-17,20.74-34.57,32.91-50.58,11.67-15.34,21.46-31.42,27.89-49.68A155.64,155.64,0,0,0,311.8,149.35Z" style="fill:#2E74BD"/></g></g></svg>